<?xml version="1.0" encoding="UTF-8"?>
<svg fill="none" viewBox="0 0 83 80" xmlns="http://www.w3.org/2000/svg">
<title>Adobe Photoshop icon</title>
<g clip-path="url(#a)">
<path d="m67.521 0h-52.992c-8.0246 0-14.53 6.5053-14.53 14.53v50.94c0 8.0246 6.5053 14.53 14.53 14.53h52.992c8.0246 0 14.53-6.5053 14.53-14.53v-50.94c0-8.0246-6.5053-14.53-14.53-14.53z" fill="#001E36"/>
<path d="m18.476 56.101v-35.172c0-0.2563 0.1101-0.3853 0.3303-0.3853 0.5865 0 1.1219-0.0086 1.9296-0.0275 0.8068-0.0181 1.6783-0.0364 2.6145-0.055 0.9358-0.0182 1.9266-0.0365 2.9724-0.0551 1.0457-0.0181 2.0823-0.0272 3.1098-0.0276 2.7883 0 5.1368 0.3486 7.0454 1.0459 1.7218 0.5824 3.2919 1.5413 4.5962 2.8071 1.1057 1.0972 1.9601 2.4212 2.5044 3.8806 0.5149 1.4203 0.7758 2.9201 0.7707 4.4309 0 2.9362-0.6789 5.3581-2.0366 7.2656-1.3667 1.9155-3.2878 3.3659-5.5043 4.1558-2.3118 0.8626-4.8808 1.1551-7.706 1.1551-0.8076 0-1.3764-0.0091-1.7064-0.0275-0.3302-0.0181-0.8255-0.0273-1.486-0.0275v10.982c0.0096 0.0673 0.0034 0.1359-0.0181 0.2004s-0.0577 0.1231-0.1058 0.1711c-0.0481 0.0481-0.1067 0.0843-0.1712 0.1058s-0.1331 0.0277-0.2004 0.0181h-6.5532c-0.2571 0-0.3853-0.1463-0.3853-0.4404zm7.434-28.952v11.472c0.4764 0.037 0.9167 0.0553 1.3209 0.055h1.8164c1.3365-0.0044 2.6642-0.2164 3.9357-0.6283 1.0904-0.3239 2.0648-0.9544 2.8071-1.8164 0.7155-0.8437 1.0733-2.0179 1.0734-3.5227 0.029-1.0648-0.248-2.1155-0.7983-3.0274-0.5784-0.8819-1.4144-1.5641-2.3943-1.954-1.2794-0.4973-2.6461-0.7313-4.0181-0.688-0.8808 0-1.6605 0.0091-2.3392 0.0274-0.6795 0.019-1.1473 0.0465-1.4036 0.0826z" fill="#31A8FF"/>
<path d="m65.631 36.534c-1.0344-0.5315-2.1361-0.9203-3.275-1.1559-1.255-0.2879-2.538-0.4356-3.8255-0.4404-0.6964-0.0188-1.3919 0.0646-2.0641 0.2478-0.4279 0.0952-0.8082 0.339-1.0734 0.688-0.1794 0.2791-0.2749 0.6039-0.2751 0.9357 0.01 0.3219 0.1261 0.6315 0.3302 0.8807 0.3215 0.3761 0.7144 0.6848 1.1558 0.9082 0.7848 0.4226 1.5935 0.7994 2.4219 1.1284 1.8473 0.6184 3.6125 1.4593 5.2566 2.5044 1.12 0.7069 2.0468 1.681 2.6971 2.8347 0.5469 1.0925 0.8207 2.3013 0.7982 3.5228 0.0329 1.6129-0.428 3.1974-1.321 4.541-0.9561 1.3639-2.284 2.4243-3.8256 3.0548-1.6702 0.7337-3.7343 1.1007-6.1922 1.1009-1.5615 0.0158-3.1204-0.1318-4.6512-0.4403-1.206-0.2212-2.3801-0.5909-3.4952-1.1009-0.1204-0.0621-0.2205-0.1572-0.2887-0.2742-0.0683-0.117-0.1018-0.251-0.0966-0.3863v-5.9446c-0.0066-0.0582 0.0027-0.1171 0.0269-0.1705 0.0243-0.0533 0.0626-0.099 0.1108-0.1323 0.0473-0.0267 0.1016-0.0384 0.1556-0.0334 0.0541 0.0049 0.1054 0.0262 0.1471 0.061 1.3169 0.7765 2.7468 1.3429 4.2382 1.6788 1.3146 0.3295 2.663 0.5049 4.0181 0.5229 1.2841 0 2.229-0.1652 2.8347-0.4954 0.2736-0.1252 0.505-0.327 0.6662-0.581s0.2453-0.5493 0.2421-0.8501c0-0.4765-0.2752-0.9351-0.8256-1.3761-0.5504-0.4403-1.6696-0.9724-3.3577-1.5963-1.7283-0.6015-3.367-1.4347-4.8713-2.4768-1.0759-0.7483-1.9619-1.738-2.587-2.8898-0.5413-1.0846-0.815-2.2831-0.7981-3.4952-0.0031-1.4564 0.397-2.8852 1.1559-4.1282 0.8652-1.3688 2.1077-2.4584 3.5778-3.1374 1.6143-0.8068 3.6325-1.2104 6.0548-1.211 1.4185-0.0114 2.8357 0.0898 4.2382 0.3027 1.0157 0.1289 2.0086 0.3974 2.9507 0.7982 0.0747 0.0214 0.1434 0.0599 0.2007 0.1124 0.0573 0.0526 0.1017 0.1177 0.1295 0.1903 0.0372 0.1344 0.0557 0.2733 0.0551 0.4128v5.5593c0.0038 0.0647-0.0095 0.1293-0.0384 0.1872-0.029 0.058-0.0727 0.1073-0.1267 0.1431-0.0736 0.0366-0.1547 0.0557-0.2369 0.0557s-0.1633-0.0191-0.2369-0.0557z" fill="#31A8FF"/>
</g>
<defs>
<clipPath id="a">
<rect width="82.051" height="80" fill="#fff"/>
</clipPath>
</defs>
</svg>
