<?xml version="1.0" encoding="UTF-8"?>
<svg fill="none" viewBox="0 0 24 24" xmlns="http://www.w3.org/2000/svg">
<title>Bootstrap icon</title>
<path d="m4.9849 2c-1.3694 0-2.3827 1.1986-2.3374 2.4984 0.04352 1.2488-0.01302 2.8662-0.42021 4.1852-0.4084 1.3228-1.0991 2.1608-2.2273 2.2684v1.2146c1.1282 0.1076 1.8189 0.9456 2.2273 2.2685 0.40719 1.3189 0.46373 2.9363 0.42021 4.1851-0.04536 1.2997 0.96793 2.4984 2.3376 2.4984h14.032c1.3695 0 2.3826-1.1985 2.3372-2.4984-0.0435-1.2488 0.013-2.8662 0.4202-4.1851 0.4086-1.3229 1.0975-2.1609 2.2257-2.2685v-1.2146c-1.1282-0.1076-1.8171-0.9456-2.2257-2.2684-0.4072-1.3188-0.4637-2.9363-0.4202-4.1852 0.0454-1.2997-0.9677-2.4984-2.3372-2.4984h-14.032 2e-4zm11.286 11.769c0 1.7899-1.3351 2.8754-3.5506 2.8754h-3.7714c-0.10788 0-0.21135-0.0429-0.28763-0.1192-0.07629-0.0763-0.11915-0.1797-0.11915-0.2876v-9.3559c0-0.10789 0.04286-0.21135 0.11915-0.28764 0.07628-0.07629 0.17975-0.11914 0.28763-0.11914h3.75c1.8473 0 3.0597 1.0007 3.0597 2.5371 0 1.0783-0.8155 2.0438-1.8547 2.2128v0.0564c1.4146 0.1552 2.3671 1.1347 2.3671 2.4878zm-3.9618-6.0046h-2.1505v3.0374h1.8112c1.4001 0 2.1722-0.5638 2.1722-1.5716 0-0.94434-0.6639-1.4658-1.8329-1.4658zm-2.1505 4.2427v3.3474h2.2296c1.4577 0 2.2299-0.585 2.2299-1.6843 0-1.0995-0.7938-1.6633-2.3237-1.6633h-2.1358v2e-4z" clip-rule="evenodd" fill="#7519F6" fill-rule="evenodd" style="--darkreader-inline-fill:#5207bb" data-darkreader-inline-fill=""/>
</svg>
