<?xml version="1.0" encoding="UTF-8"?>
<svg fill="#000000" style="--darkreader-inline-fill:#000000" data-darkreader-inline-fill="" preserveAspectRatio="xMidYMid" version="1.1" viewBox="0 -15.5 256 256" xmlns="http://www.w3.org/2000/svg">
<title>EsLint icon</title>
<path d="m77.965 80.568 48.57-28.042c1.2155-0.702 2.7137-0.702 3.9292 0l48.571 28.042c1.2145 0.702 1.9646 1.9987 1.9646 3.4027v56.084c0 1.403-0.75014 2.7007-1.9646 3.4037l-48.571 28.042c-1.2155 0.702-2.7137 0.702-3.9292 0l-48.57-28.042c-1.2155-0.702-1.9646-1.9997-1.9646-3.4037v-56.084c0.0010029-1.404 0.75014-2.7007 1.9646-3.4027" fill="#8080F2" style="--darkreader-inline-fill:#0d0d7a" data-darkreader-inline-fill=""></path>
<path d="m254.42 107.42-58.094-101.07c-2.1102-3.6543-6.0084-6.3498-10.228-6.3498h-116.19c-4.2205 0-8.1197 2.6955-10.23 6.3498l-58.094 100.84c-2.1102 3.6553-2.1102 8.2683 0 11.924l58.094 100.24c2.1102 3.6543 6.0094 5.5226 10.23 5.5226h116.19c4.2195 0 8.1187-1.8121 10.228-5.4674l58.094-100.4c2.1122-3.6533 2.1122-7.938 0.001004-11.592zm-48.105 48.6c0 1.4858-0.89449 2.8602-2.1825 3.6041l-73.999 42.694c-1.287 0.7429-2.8993 0.7429-4.1863 0l-74.056-42.694c-1.287-0.74391-2.1875-2.1173-2.1875-3.6041v-85.389c0-1.4868 0.88746-2.8602 2.1755-3.6041l73.996-42.694c1.287-0.74391 2.8973-0.74391 4.1843 0l74.061 42.694c1.288 0.74391 2.1946 2.1173 2.1946 3.6041v85.389z" fill="#4B32C3" style="--darkreader-inline-fill:#3c289c" data-darkreader-inline-fill=""></path>
</svg>
