<?xml version="1.0" encoding="UTF-8"?>
<svg fill="none" viewBox="0 0 16 16" xmlns="http://www.w3.org/2000/svg">
<title>Figma icon</title>
<path d="M8.55 8c0-1.289 1.019-2.333 2.275-2.333C12.082 5.667 13.1 6.71 13.1 8c0 1.289-1.018 2.333-2.275 2.333C9.57 10.333 8.55 9.29 8.55 8z" fill="#1ABCFE" style="--darkreader-inline-fill:#0186bc" data-darkreader-inline-fill=""/>
<path d="M4 12.667c0-1.289 1.019-2.334 2.275-2.334H8.55v2.334C8.55 13.955 7.531 15 6.275 15S4 13.955 4 12.667z" fill="#0ACF83" style="--darkreader-inline-fill:#08a669" data-darkreader-inline-fill=""/>
<path d="M8.55 1v4.667h2.275c1.257 0 2.275-1.045 2.275-2.334C13.1 2.045 12.082 1 10.825 1H8.55z" fill="#FF7262" style="--darkreader-inline-fill:#910f00" data-darkreader-inline-fill=""/>
<path d="M4 3.333c0 1.289 1.019 2.334 2.275 2.334H8.55V1H6.275C5.019 1 4 2.045 4 3.333z" fill="#F24E1E" style="--darkreader-inline-fill:#b7320b" data-darkreader-inline-fill=""/>
<path d="M4 8c0 1.289 1.019 2.333 2.275 2.333H8.55V5.667H6.275C5.019 5.667 4 6.71 4 8z" fill="#A259FF" style="--darkreader-inline-fill:#420097" data-darkreader-inline-fill=""/>
</svg>
