<?xml version="1.0" encoding="UTF-8"?>
<svg fill="none" viewBox="0 0 32 32" xmlns="http://www.w3.org/2000/svg">
<title>GIT icon</title>
<path d="m2.5854 17.413c-0.78048-0.7805-0.78048-2.0459 0-2.8264l12.001-12.001c0.7805-0.78048 2.0459-0.78048 2.8264 0l12.001 12.001c0.7805 0.7805 0.7805 2.0459 0 2.8264l-12.001 12.001c-0.7805 0.7805-2.0459 0.7805-2.8264 0l-12.001-12.001z" fill="#EE513B" style="--darkreader-inline-fill:#a5210e" data-darkreader-inline-fill=""/>
<path d="m12.149 5.0615-1.2153 1.2153 3.1389 3.1389c-0.127 0.27242-0.1979 0.57624-0.1979 0.89663 0 0.9096 0.5715 1.6857 1.375 1.9888v7.6786c-0.8035 0.3031-1.375 1.0792-1.375 1.9888 0 1.1736 0.9514 2.125 2.125 2.125s2.125-0.9514 2.125-2.125c0-0.8246-0.4697-1.5396-1.1562-1.8918v-7.7651l3.0005 3.0005c-0.1208 0.2669-0.188 0.5632-0.188 0.8752 0 1.1736 0.9514 2.125 2.125 2.125s2.125-0.9514 2.125-2.125-0.9514-2.125-2.125-2.125c-0.2281 0-0.4477 0.0359-0.6537 0.1024l-3.2225-3.2225c0.0617-0.199 0.0949-0.4106 0.0949-0.6299 0-1.1736-0.9514-2.125-2.125-2.125-0.2193 0-0.4308 0.03323-0.6299 0.09492l-3.2208-3.2208z" fill="#fff" style="--darkreader-inline-fill:#181a1b" data-darkreader-inline-fill=""/>
</svg>
