<?xml version="1.0" encoding="UTF-8"?>
<svg fill="#F7E025" style="--darkreader-inline-fill:#877905" data-darkreader-inline-fill="" version="1.1" viewBox="0 0 20 20" xmlns="http://www.w3.org/2000/svg">
<title>Javascript icon</title>
<g>
<title>javascript [#F7E025]</title>
<desc>Created with Sketch.</desc>
<g fill="none" fill-rule="evenodd" style="--darkreader-inline-stroke:none" data-darkreader-inline-stroke="">
<g transform="translate(-420 -7479)" fill="#F7E025" style="--darkreader-inline-fill:#877905" data-darkreader-inline-fill="">
<g transform="translate(56 160)">
<path d="m379.33 7337.4c-1.745 0-2.873-0.832-3.423-1.92l1.53-0.886c0.403 0.658 0.926 1.141 1.853 1.141 0.778 0 1.275-0.389 1.275-0.926 0-0.808-1.078-1.124-1.839-1.45-1.356-0.577-2.256-1.302-2.256-2.833 0-1.409 1.074-2.483 2.753-2.483 1.194 0 2.054 0.416 2.671 1.503l-1.463 0.94c-0.322-0.577-0.671-0.805-1.208-0.805-0.551 0-0.9 0.349-0.9 0.805 0 0.564 0.349 0.792 1.155 1.141 1.689 0.724 2.967 1.293 2.967 3.155 0 1.692-1.329 2.618-3.115 2.618zm-4.328-2.833c0 1.947-1.199 2.976-2.864 2.976-1.504 0-2.405-0.575-2.848-1.575h-0.015-7e-3 -4e-3l1.529-1.069c0.295 0.523 0.561 0.894 1.205 0.894 0.618 0 1.004-0.313 1.004-1.252v-6.573h2v6.599zm-11 4.401h20v-20h-20v20z"></path>
</g>
</g>
</g>
</g>
</svg>
