<?xml version="1.0" encoding="UTF-8"?>
<svg fill="#FFFFFF" stroke="#FFFFFF" style="--darkreader-inline-fill:#181a1b;--darkreader-inline-stroke:#e8e6e3" data-darkreader-inline-fill="" data-darkreader-inline-stroke="" preserveAspectRatio="xMidYMid" version="1.1" viewBox="0 -49 256 256" xmlns="http://www.w3.org/2000/svg">
<title>Markdown icon</title>
<path d="m238.37 157.89h-219.98c-9.9641 0-18.395-8.4311-18.395-18.395v-121.1c0-9.9641 8.4311-18.395 18.395-18.395h219.21c9.9641 0 18.395 8.4311 18.395 18.395v121.1c0 9.9641-7.6647 18.395-17.629 18.395zm-219.98-145.63c-3.0659 0-6.1317 3.0659-6.1317 6.1317v121.1c0 3.8323 3.0659 6.1317 6.1317 6.1317h219.21c3.8323 0 6.1317-3.0659 6.1317-6.1317v-121.1c0-3.8323-3.0659-6.1317-6.1317-6.1317h-219.21zm18.395 108.84v-84.311h24.527l24.527 30.659 24.527-30.659h24.527v84.311h-24.527v-48.287l-24.527 30.659-24.527-30.659v48.287h-24.527zm154.06 0-36.79-40.623h24.527v-43.689h24.527v42.922h24.527l-36.79 41.389z" fill="#fff" style="--darkreader-inline-fill:#181a1b" data-darkreader-inline-fill=""></path>
</svg>
