<?xml version="1.0" encoding="UTF-8"?>
<svg preserveAspectRatio="xMidYMid" viewBox="0 0 256 549" xmlns="http://www.w3.org/2000/svg">
<title>MongoDB icon</title>
<path d="m175.62 61.108c-23.01-27.301-42.825-55.03-46.873-60.788a1.03 1.03 0 0 0-1.492 0c-4.048 5.759-23.863 33.487-46.874 60.788-197.51 251.9 31.108 421.89 31.108 421.89l1.917 1.28c1.704 26.234 5.966 63.988 5.966 63.988h17.045s4.26-37.54 5.965-63.987l1.918-1.494c0.213 0.214 228.83-169.78 31.32-421.68zm-47.726 418.05s-10.227-8.744-12.997-13.222v-0.428l12.358-274.29c0-0.853 1.279-0.853 1.279 0l12.357 274.29v0.428c-2.77 4.478-12.997 13.223-12.997 13.223z" fill="#01EC64"/>
</svg>
