<?xml version="1.0" encoding="UTF-8"?>
<svg fill="none" viewBox="0 0 24 24" xmlns="http://www.w3.org/2000/svg">
<title>NextJs icon</title>
<g clip-path="url(#ffffffclip0)">
<path d="m11.214 0.0064594c-0.0516 0.0046921-0.2159 0.021114-0.3637 0.032845-3.4088 0.30733-6.6017 2.1466-8.624 4.9736-1.1261 1.5718-1.8463 3.3548-2.1185 5.2434-0.096188 0.6593-0.10792 0.854-0.10792 1.7478 0 0.8939 0.01173 1.0886 0.10792 1.7478 0.6522 4.5068 3.8592 8.2933 8.2088 9.6962 0.77888 0.251 1.6 0.4223 2.5337 0.5255 0.3637 0.0399 1.9355 0.0399 2.2992 0 1.6117-0.1783 2.9771-0.5771 4.3237-1.2645 0.2065-0.1056 0.2463-0.1337 0.2182-0.1572-0.0188-0.0141-0.8985-1.1941-1.9543-2.6205l-1.919-2.5924-2.4047-3.5589c-1.3232-1.9566-2.4117-3.5566-2.4211-3.5566-0.00939-0.0024-0.01877 1.5789-0.02347 3.5096-0.00703 3.3807-0.00938 3.5168-0.05161 3.5965-0.06099 0.115-0.10792 0.1619-0.20645 0.2135-0.07507 0.0376-0.14076 0.0446-0.49501 0.0446h-0.40587l-0.10792-0.068c-0.07038-0.0446-0.12199-0.1033-0.15718-0.1713l-0.04927-0.1056 0.00469-4.7038 0.00704-4.7062 0.07273-0.09149c0.03754-0.04927 0.1173-0.11261 0.17361-0.14311 0.09618-0.04692 0.13372-0.05161 0.53958-0.05161 0.4786 0 0.55836 0.01876 0.6827 0.15483 0.03519 0.03754 1.3372 1.9988 2.895 4.3613 1.5577 2.3624 3.6879 5.5882 4.7343 7.1718l1.9003 2.8786 0.0962-0.0633c0.8516-0.5537 1.7525-1.342 2.4656-2.1631 1.5179-1.7431 2.4962-3.8686 2.8247-6.1349 0.0962-0.6592 0.1079-0.8539 0.1079-1.7478 0-0.8938-0.0117-1.0885-0.1079-1.7478-0.6522-4.5067-3.8593-8.2932-8.2088-9.6962-0.7672-0.24868-1.5836-0.41994-2.4985-0.52317-0.2253-0.02346-1.776-0.049267-1.9707-0.030499zm4.9126 7.2587c0.1126 0.05631 0.2041 0.16422 0.2369 0.27683 0.0188 0.061 0.0235 1.3654 0.0188 4.305l-7e-3 4.2182-0.7437-1.1402-0.7461-1.1401v-3.0663c0-1.9824 0.0094-3.0968 0.0235-3.1508 0.0375-0.13138 0.1196-0.2346 0.2322-0.2956 0.0962-0.04927 0.1314-0.05396 0.4998-0.05396 0.3472 0 0.4082 0.00469 0.4856 0.04692z" fill="#fff" style="--darkreader-inline-fill:#181a1b" data-darkreader-inline-fill=""/>
</g>
</svg>
