<?xml version="1.0" encoding="UTF-8"?>
<svg fill="none" viewBox="0 0 32 32" xmlns="http://www.w3.org/2000/svg">
<title>ReactJs icon</title>
<g fill="#53C1DE">
<path d="m18.679 15.976c0-1.4344-1.1993-2.5974-2.6789-2.5974-1.4794 0-2.6789 1.163-2.6789 2.5974 0 1.4346 1.1995 2.5975 2.6789 2.5975 1.4796 0 2.6789-1.1629 2.6789-2.5975z" style="--darkreader-inline-fill:#1c7992" data-darkreader-inline-fill=""/>
<path d="m24.7 11.154c0.5657-2.2289 1.2768-6.3622-1.23-7.7635-2.4951-1.3952-5.742 1.2783-7.4565 2.883-1.7095-1.5888-5.0476-4.2508-7.5523-2.845-2.4941 1.3999-1.725 5.4647-1.1467 7.7076-2.3266 0.6407-6.3149 2.0207-6.3149 4.8402 0 2.8115 3.9842 4.3129 6.297 4.953-0.5804 2.2553-1.311 6.262 1.1863 7.6588 2.514 1.4055 5.8417-1.1932 7.5721-2.8155 1.7255 1.6142 4.9412 4.2299 7.4368 2.8292 2.5034-1.4051 1.8514-5.483 1.2731-7.7389 2.242-0.6415 6.2347-2.1102 6.2347-4.8866 0-2.7924-4.0097-4.1836-6.2996-4.8222zm-0.2842 8.5133c-0.3797-1.1654-0.8922-2.4047-1.5191-3.6849 0.5984-1.25 1.091-2.4733 1.4601-3.6312 1.6787 0.4719 5.3613 1.5504 5.3613 3.625 0 2.0941-3.5339 3.1828-5.3023 3.6911zm-1.5662 7.859c-1.862 1.045-4.6279-1.4564-5.9022-2.6451 0.8454-0.8965 1.6902-1.9387 2.5147-3.096 1.4504-0.1247 2.8205-0.3287 4.0631-0.6072 0.407 1.5957 1.1946 5.2986-0.6756 6.3483zm-13.726-0.0149c-1.8622-1.0411-1.011-4.6165-0.58405-6.2778 1.2288 0.2636 2.589 0.4532 4.0428 0.5675 0.8299 1.1324 1.6992 2.1733 2.5752 3.0849-1.0823 1.0151-4.1631 3.6713-6.034 2.6254zm-6.8421-11.535c0-2.1019 3.6606-3.1726 5.3776-3.6433 0.37547 1.1839 0.86791 2.4218 1.4622 3.6736-0.60198 1.2704-1.1015 2.5279-1.4804 3.7258-1.6372-0.4544-5.3594-1.6529-5.3594-3.7561zm6.8222-11.472c1.8698-1.0494 4.771 1.5063 6.0122 2.6566-0.8715 0.90741-1.7328 1.9405-2.5556 3.0664-1.4109 0.1268-2.7616 0.3304-4.0032 0.6032-0.46584-1.809-1.3212-5.2779 0.54661-6.3262zm11.276 7.0736c0.9572 0.1171 1.8743 0.2729 2.7354 0.4635-0.2585 0.8034-0.5807 1.6435-0.9602 2.5047-0.5501-1.012-1.1406-2.0037-1.7752-2.9682zm-4.365-3.529c0.5911 0.62087 1.1831 1.3142 1.7655 2.0664-1.1813-0.0542-2.3645-0.0544-3.5458-8e-4 0.5829-0.74522 1.18-1.4375 1.7803-2.0656zm-6.1578 6.4963c-0.37321-0.8582-0.69252-1.702-0.95328-2.5169 0.85596-0.1857 1.7688-0.3375 2.7198-0.4527-0.6364 0.9624-1.2259 1.9537-1.7665 2.9696zm1.7938 5.9213c-0.9824-0.1063-1.909-0.2504-2.7647-0.431 0.26488-0.8292 0.59122-1.6912 0.9724-2.5679 0.54804 1.0265 1.1465 2.0274 1.7923 2.9989zm4.3995 3.5258c-0.6074-0.6355-1.2133-1.3384-1.805-2.0944 1.188 0.0452 2.3783 0.0453 3.5662-0.0061-0.5842 0.7698-1.1741 1.4737-1.7612 2.1005zm6.1169-6.5693c0.401 0.8862 0.739 1.7435 1.0075 2.5587-0.8699 0.1925-1.809 0.3475-2.7985 0.4626 0.6393-0.9828 1.2392-1.9899 1.791-3.0213zm-3.4194 3.1719c-1.8172 0.1259-3.6457 0.1245-5.4635 0.0103-1.0329-1.4629-1.9524-3.0014-2.7461-4.5986 0.7899-1.5939 1.7027-3.1294 2.7307-4.59 1.8191-0.1333 3.6494-0.1337 5.4685 8e-4 1.0192 1.4605 1.9306 2.992 2.7388 4.5715-0.7986 1.5931-1.7162 3.1317-2.7284 4.606zm4.083-16.128c1.8703 1.0459 1.0378 4.7607 0.6292 6.376-1.2446-0.2785-2.5962-0.4857-4.0112-0.6145-0.8244-1.1381-1.6785-2.1729-2.5359-3.0686 1.2571-1.1751 4.0657-3.7286 5.9179-2.6929z" clip-rule="evenodd" fill-rule="evenodd" style="--darkreader-inline-fill:#1c7992" data-darkreader-inline-fill=""/>
</g>
</svg>
