<?xml version="1.0" encoding="UTF-8"?>
<svg fill="none" viewBox="0 0 24 24" xmlns="http://www.w3.org/2000/svg">
<title>Sass icon</title>
<path d="m16.372 2.1497c1.2776 0.23395 2.5592 0.8091 3.1805 1.9925 0.6402 1.2193 0.5731 2.4058 0.0408 3.4047-0.5031 0.94428-1.3794 1.65-2.2625 2.1241-0.8896 0.47759-1.8923 0.77799-2.7714 0.83679-0.4376 0.0293-0.8977 0.0024-1.3157-0.1325-0.4207-0.1358-0.8835-0.41274-1.1401-0.93253-0.2446-0.4952-0.0414-1.0949 0.4538-1.3394 0.4645-0.22934 1.0208-0.06484 1.2899 0.36502 0.0033 0.00113 0.0068 0.00231 0.0106 0.00354 0.0987 0.03186 0.2858 0.05926 0.568 0.04037 0.5607-0.03752 1.2885-0.2435 1.9588-0.60339 0.6768-0.36333 1.1897-0.82615 1.4436-1.3025 0.2247-0.42174 0.2823-0.90802-0.0466-1.5345-0.2004-0.38181-0.7376-0.76585-1.7699-0.95489-0.9981-0.18277-2.2645-0.14018-3.5646 0.13026-1.2967 0.26974-2.5632 0.75302-3.5672 1.3967-1.0138 0.64995-1.6746 1.4061-1.9284 2.1897-0.27463 0.84767-0.17729 1.4443 0.07001 1.9343 0.27127 0.53749 0.7681 1.0353 1.4532 1.5682 0.33157 0.258 0.68361 0.5068 1.0546 0.7691l0.02015 0.0143c0.37081 0.2621 0.76222 0.5392 1.1281 0.8281 0.3081 0.2433 0.6229 0.5133 0.9111 0.8171 1.2933-0.2494 2.4138-0.2223 3.332 0.1977 1.1823 0.5407 1.775 1.6063 2.0538 2.8124 0.1244 0.5381-0.211 1.0751-0.7491 1.1995s-1.0751-0.211-1.1995-0.7491c-0.2001-0.8659-0.5271-1.2565-0.937-1.444-0.3005-0.1374-0.7493-0.2157-1.4173-0.155 0.616 2.1653-0.4595 4.1262-1.7762 5.237-0.7093 0.5984-1.5777 1.0345-2.4457 1.1211-0.90791 0.0907-1.8779-0.2138-2.4471-1.1616-0.50264-0.8369-0.50663-1.7268-0.24445-2.5192 0.25225-0.7623 0.75044-1.4485 1.2962-2.0165 0.68598-0.714 1.5488-1.3444 2.3671-1.7829-0.31308-0.2463-0.65568-0.4894-1.0265-0.7515l-0.03546-0.0251c-0.3597-0.2542-0.74455-0.5262-1.1129-0.8128-0.75108-0.5843-1.5353-1.3039-2.0106-2.2457-0.49928-0.98929-0.61409-2.134-0.18714-3.4518 0.4477-1.3818 1.5157-2.4646 2.7517-3.257 1.2458-0.79869 2.7501-1.3613 4.2394-1.6711 1.4858-0.30908 3.0203-0.37969 4.3321-0.13947zm-5.6498 13.94c-0.6732 0.3055-1.5488 0.8782-2.2256 1.5826-0.42959 0.4472-0.71504 0.8825-0.83965 1.2592-0.11469 0.3466-0.08877 0.6131 0.06023 0.8612 0.08247 0.1373 0.20884 0.2337 0.53388 0.2012 0.36491-0.0364 0.86604-0.2473 1.3548-0.6596 0.93534-0.7891 1.5016-2.0097 1.1164-3.2446zm3.0901-7.6361c0-1e-5 6e-4 2.9e-4 0.0017 9.5e-4z" clip-rule="evenodd" fill="#CE6B9C" fill-rule="evenodd" style="--darkreader-inline-fill:#7f2a54" data-darkreader-inline-fill=""/>
</svg>
